<svg width="25" height="24" viewBox="0 0 25 24" fill="none" xmlns="http://www.w3.org/2000/svg">
<path d="M5.99998 18H12M10.8 21.6H16.8M16.8 18H20.4M21.6 8.4C21.6 11.7137 18.9137 14.4 15.6 14.4C14.1438 14.4 12 14.4 12 14.4C12 14.4 9.71304 14.4 8.39998 14.4C5.74901 14.4 3.59998 12.251 3.59998 9.6C3.59998 6.94904 5.74901 4.8 8.39998 4.8C9.14466 4.8 9.84974 4.96959 10.4787 5.27224C11.5331 3.54953 13.4323 2.4 15.6 2.4C18.9137 2.4 21.6 5.08629 21.6 8.4Z" stroke="#101828" stroke-linecap="round" stroke-linejoin="round"/>
</svg>
