<svg width="25" height="24" viewBox="0 0 25 24" fill="none" xmlns="http://www.w3.org/2000/svg">
<path d="M12.2836 19.941H5.00088C3.67538 19.941 2.60086 18.8665 2.60088 17.541L2.60097 8.41669C2.60097 7.50277 2.60063 6.20103 2.60034 5.25849C2.60014 4.59557 3.13747 4.05879 3.80039 4.05879H9.5186L12.2836 7.01243H20.5999C21.2627 7.01243 21.7999 7.54969 21.7999 8.21243V11.4M19.9999 18.6L21.1999 19.8M20.5999 16.2C20.5999 17.8569 19.2568 19.2 17.5999 19.2C15.9431 19.2 14.5999 17.8569 14.5999 16.2C14.5999 14.5431 15.9431 13.2 17.5999 13.2C19.2568 13.2 20.5999 14.5431 20.5999 16.2Z" stroke="#101828" stroke-linecap="round" stroke-linejoin="round"/>
</svg>
