<svg width="25" height="24" viewBox="0 0 25 24" fill="none" xmlns="http://www.w3.org/2000/svg">
<path d="M14.0499 20.7165C13.3308 20.9016 12.5769 21 11.7999 21C6.82936 21 2.79993 16.9706 2.79993 12C2.79993 7.02944 6.82936 3 11.7999 3C16.3895 3 20.1767 6.4354 20.7303 10.875M3.92493 15.375H6.54993C7.58546 15.375 8.42493 14.5355 8.42493 13.5V11.0625C8.42493 10.027 9.26439 9.1875 10.2999 9.1875H12.1749C13.2105 9.1875 14.0499 8.34804 14.0499 7.3125V4.125M19.7195 17.6457L22.2959 16.755C22.7789 16.588 22.795 15.911 22.3206 15.7212L15.933 13.1657C15.4886 12.988 15.0441 13.4215 15.2107 13.8702L17.644 20.4217C17.8218 20.9005 18.4986 20.9015 18.6779 20.4233L19.7195 17.6457Z" stroke="black" stroke-linecap="round" stroke-linejoin="round"/>
</svg>
