<svg xmlns="http://www.w3.org/2000/svg" width="48" height="49" viewBox="0 0 48 49" fill="none">
<path d="M40.875 25.8776C41.4273 25.8776 41.875 25.4299 41.875 24.8776C41.875 24.3253 41.4273 23.8776 40.875 23.8776V25.8776ZM41 24.8776C41 34.2664 33.3888 41.8776 24 41.8776V43.8776C34.4934 43.8776 43 35.371 43 24.8776H41ZM24 41.8776C14.6112 41.8776 7 34.2664 7 24.8776H5C5 35.371 13.5066 43.8776 24 43.8776V41.8776ZM7 24.8776C7 15.4887 14.6112 7.87756 24 7.87756V5.87756C13.5066 5.87756 5 14.3842 5 24.8776H7ZM24 7.87756C33.3888 7.87756 41 15.4887 41 24.8776H43C43 14.3842 34.4934 5.87756 24 5.87756V7.87756ZM24 41.8776C23.2436 41.8776 22.4441 41.5314 21.6298 40.7441C20.8106 39.9522 20.0273 38.7579 19.3477 37.2047C17.9899 34.1011 17.125 29.7436 17.125 24.8776H15.125C15.125 29.9527 16.023 34.5952 17.5154 38.0063C18.2609 39.7104 19.1745 41.1522 20.2396 42.182C21.3096 43.2164 22.5818 43.8776 24 43.8776V41.8776ZM17.125 24.8776C17.125 20.0116 17.9899 15.6541 19.3477 12.5505C20.0273 10.9972 20.8106 9.80297 21.6298 9.01104C22.4441 8.22377 23.2436 7.87756 24 7.87756V5.87756C22.5818 5.87756 21.3096 6.53872 20.2396 7.57314C19.1745 8.60292 18.2609 10.0447 17.5154 11.7488C16.023 15.16 15.125 19.8024 15.125 24.8776H17.125ZM24 43.8776C25.4182 43.8776 26.6904 43.2164 27.7604 42.182C28.8255 41.1522 29.7391 39.7104 30.4846 38.0063C31.977 34.5952 32.875 29.9527 32.875 24.8776H30.875C30.875 29.7436 30.0101 34.1011 28.6523 37.2047C27.9727 38.7579 27.1894 39.9522 26.3702 40.7441C25.5559 41.5314 24.7564 41.8776 24 41.8776V43.8776ZM32.875 24.8776C32.875 19.8024 31.977 15.16 30.4846 11.7488C29.7391 10.0447 28.8255 8.60292 27.7604 7.57314C26.6904 6.53872 25.4182 5.87756 24 5.87756V7.87756C24.7564 7.87756 25.5559 8.22377 26.3702 9.01104C27.1894 9.80297 27.9727 10.9972 28.6523 12.5505C30.0101 15.6541 30.875 20.0116 30.875 24.8776H32.875ZM6 25.8776L40.875 25.8776V23.8776L6 23.8776L6 25.8776Z" fill="#1D2939"/>
</svg>