<svg xmlns="http://www.w3.org/2000/svg" width="16" height="16" viewBox="0 0 16 16" fill="none">
  <path d="M10.1 5.6C9.58905 5.59824 9.08275 5.69726 8.61009 5.89138C8.13744 6.0855 7.7077 6.37092 7.34546 6.7313C6.98322 7.09168 6.6956 7.51995 6.49905 7.9916C6.3025 8.46325 6.20089 8.96903 6.20001 9.48V13.4C6.20001 13.5591 6.26323 13.7117 6.37575 13.8243C6.48827 13.9368 6.64088 14 6.80001 14H8.20001C8.35914 14 8.51175 13.9368 8.62428 13.8243C8.7368 13.7117 8.80001 13.5591 8.80001 13.4V9.48C8.79988 9.29827 8.83805 9.11855 8.91203 8.95255C8.98602 8.78656 9.09415 8.63803 9.22939 8.51663C9.36462 8.39523 9.52393 8.30369 9.69691 8.24799C9.8699 8.19228 10.0527 8.17366 10.2333 8.19333C10.5574 8.23414 10.8551 8.39244 11.0702 8.63821C11.2852 8.88397 11.4026 9.20011 11.4 9.52667V13.4C11.4 13.5591 11.4632 13.7117 11.5757 13.8243C11.6883 13.9368 11.8409 14 12 14H13.4C13.5591 14 13.7118 13.9368 13.8243 13.8243C13.9368 13.7117 14 13.5591 14 13.4V9.48C13.9991 8.96903 13.8975 8.46325 13.701 7.9916C13.5044 7.51995 13.2168 7.09168 12.8546 6.7313C12.4923 6.37092 12.0626 6.0855 11.5899 5.89138C11.1173 5.69726 10.611 5.59824 10.1 5.6Z" fill="#1D2939"/>
  <path d="M4.4 6.19998H2.6C2.26863 6.19998 2 6.46861 2 6.79998V13.4C2 13.7314 2.26863 14 2.6 14H4.4C4.73137 14 5 13.7314 5 13.4V6.79998C5 6.46861 4.73137 6.19998 4.4 6.19998Z" fill="#1D2939"/>
  <path d="M3.5 5C4.32843 5 5 4.32843 5 3.5C5 2.67157 4.32843 2 3.5 2C2.67157 2 2 2.67157 2 3.5C2 4.32843 2.67157 5 3.5 5Z" fill="#1D2939"/>
</svg>